<svg xmlns="http://www.w3.org/2000/svg" width="60" height="60" viewBox="0 0 60 60">
  <g id="C_Icon_Fragment">
    <path fill="currentColor" d="M24.24,48.48h-7.46c-3.08,0-5.59-2.51-5.59-5.59s2.51-5.59,5.59-5.59h7.46c3.08,0,5.59,2.51,5.59,5.59s-2.51,5.59-5.59,5.59Z"/>
    <path fill="currentColor" d="M51.28,59.67H8.39c-4.63,0-8.39-3.77-8.39-8.39V8.39C0,3.77,3.76,0,8.39,0h42.89c4.63,0,8.39,3.77,8.39,8.39v42.89c0,4.63-3.76,8.39-8.39,8.39ZM8.39,5.59c-1.54,0-2.8,1.26-2.8,2.8v42.89c0,1.54,1.25,2.8,2.8,2.8h42.89c1.54,0,2.8-1.26,2.8-2.8V8.39c0-1.54-1.25-2.8-2.8-2.8H8.39Z"/>
    <path fill="currentColor" d="M41.96,29.84h-10.57c-3.6,0-6.53-2.93-6.53-6.53v-5.59c0-3.6,2.93-6.53,6.53-6.53h10.57c3.6,0,6.53,2.93,6.53,6.53v5.59c0,3.6-2.93,6.53-6.53,6.53ZM31.39,16.78c-.51,0-.93.42-.93.93v5.59c0,.51.42.93.93.93h10.57c.51,0,.93-.42.93-.93v-5.59c0-.51-.42-.93-.93-.93h-10.57Z"/>
  </g>
</svg>
