<?xml version="1.0" encoding="UTF-8"?>
<svg width="20" height="20" viewBox="0 0 20 20" fill="none" xmlns="http://www.w3.org/2000/svg" id="icon">
<path d="M10 18.7793C5.1748 18.7793 1.25 14.8545 1.25 10.0293C1.25 5.2041 5.1748 1.2793 10 1.2793C14.8252 1.2793 18.75 5.2041 18.75 10.0293C18.75 14.8545 14.8252 18.7793 10 18.7793ZM10 2.7793C6.00195 2.7793 2.75 6.03125 2.75 10.0293C2.75 14.0273 6.00195 17.2793 10 17.2793C13.998 17.2793 17.25 14.0273 17.25 10.0293C17.25 6.03125 13.998 2.7793 10 2.7793Z" fill="currentColor"/>
<path d="M10 14.3836C10 15.0369 10.6146 15.5051 11.251 15.3571C13.6858 14.7908 15.5 12.6072 15.5 10C15.5 7.39279 13.6858 5.20927 11.251 4.64297C10.6146 4.49497 10 4.96313 10 5.61646V14.3836Z" fill="currentColor"/>
</svg>
