<svg xmlns="http://www.w3.org/2000/svg" width="20" height="20" viewBox="0 0 20 20">
  <g id="S2_box">
    <rect id="Rectangle_14" width="20" height="20" transform="translate(2 1606)" fill="#fff" opacity="0"/>
    <g id="S2_Icon_CloseCircle_20_N">
      <path fill="currentColor" id="Path_27" d="M11.061,10l2.22-2.22A.75.75,0,0,0,12.22,6.72L10,8.939,7.78,6.72A.75.75,0,0,0,6.72,7.78L8.939,10,6.72,12.22A.75.75,0,1,0,7.78,13.28L10,11.061l2.22,2.22A.75.75,0,0,0,13.28,12.22Z"/>
      <path  d="M10,18.75A8.75,8.75,0,1,1,18.75,10,8.759,8.759,0,0,1,10,18.75Zm0-16A7.25,7.25,0,1,0,17.25,10,7.258,7.258,0,0,0,10,2.75Z"/>
    </g>
  </g>
</svg>
