<svg xmlns="http://www.w3.org/2000/svg" width="20" height="20" viewBox="0 0 20 20">
  <g id="S2_Icon_InfoCircleBlue_20_N">
    <path fill="currentColor" d="M10,5.26a.888.888,0,0,1,.627.229.958.958,0,0,1,0,1.286A.873.873,0,0,1,10,7.01a.847.847,0,0,1-.633-.248.862.862,0,0,1-.241-.628A.882.882,0,0,1,9.354,5.5.862.862,0,0,1,10,5.26Z"/>
    <path fill="currentColor" d="M10,15.064a.75.75,0,0,1-.75-.75V9.479a.75.75,0,0,1,1.5,0v4.835A.75.75,0,0,1,10,15.064Z"/>
    <path fill="currentColor" d="M10,18.75A8.75,8.75,0,1,1,18.75,10,8.76,8.76,0,0,1,10,18.75Zm0-16A7.25,7.25,0,1,0,17.25,10,7.258,7.258,0,0,0,10,2.75Z"/>
  </g>
</svg>
