<svg xmlns="http://www.w3.org/2000/svg" width="20" height="20" viewBox="0 0 20 20">
  <g id="S2_Icon_AdobeExpressSolid_20_N">
    <path fill="currentColor" d="M15.755,1H4.245A3.245,3.245,0,0,0,1,4.245v11.51A3.245,3.245,0,0,0,4.245,19h11.51A3.245,3.245,0,0,0,19,15.755V4.245A3.245,3.245,0,0,0,15.755,1ZM13.4,14.722a1.275,1.275,0,0,1-1.212-.8l-1.927-4.5a.291.291,0,0,0-.541,0l-.944,2.25a.3.3,0,0,0,.276.416l.506,0a1.32,1.32,0,0,1,0,2.64H6.6A1.312,1.312,0,0,1,5.39,12.9L8.05,6.565a2.107,2.107,0,0,1,3.881,0L14.609,12.9A1.312,1.312,0,0,1,13.4,14.722Z"/>
    <path d="M15.755,1H4.245A3.245,3.245,0,0,0,1,4.245v11.51A3.245,3.245,0,0,0,4.245,19h11.51A3.245,3.245,0,0,0,19,15.755V4.245A3.245,3.245,0,0,0,15.755,1ZM13.4,14.722a1.275,1.275,0,0,1-1.212-.8l-1.927-4.5a.291.291,0,0,0-.541,0l-.944,2.25a.3.3,0,0,0,.276.416l.506,0a1.32,1.32,0,0,1,0,2.64H6.6A1.312,1.312,0,0,1,5.39,12.9L8.05,6.565a2.107,2.107,0,0,1,3.881,0L14.609,12.9A1.312,1.312,0,0,1,13.4,14.722Z"/>
  </g>
</svg>
