<svg width="20" height="20" viewBox="0 0 20 20" fill="none" xmlns="http://www.w3.org/2000/svg">
  <g id="S2_Icon_Settings_20_N">
    <path d="M10 13.5a3.5 3.5 0 1 1 0-7 3.5 3.5 0 0 1 0 7Zm0-1.5a2 2 0 1 0 0-4 2 2 0 0 0 0 4Z" fill="currentColor"/>
    <path d="M11.65 1.5a.75.75 0 0 1 .744.65l.193 1.444a6.5 6.5 0 0 1 1.583.916l1.357-.534a.75.75 0 0 1 .94.353l1.65 2.857a.75.75 0 0 1-.196.97l-1.165.91a6.6 6.6 0 0 1 0 1.768l1.165.91a.75.75 0 0 1 .196.97l-1.65 2.857a.75.75 0 0 1-.94.353l-1.357-.534a6.5 6.5 0 0 1-1.583.916l-.193 1.444a.75.75 0 0 1-.744.65h-3.3a.75.75 0 0 1-.744-.65l-.193-1.444a6.5 6.5 0 0 1-1.583-.916l-1.357.534a.75.75 0 0 1-.94-.353l-1.65-2.857a.75.75 0 0 1 .196-.97l1.165-.91a6.6 6.6 0 0 1 0-1.768l-1.165-.91a.75.75 0 0 1-.196-.97l1.65-2.857a.75.75 0 0 1 .94-.353l1.357.534a6.5 6.5 0 0 1 1.583-.916l.193-1.444A.75.75 0 0 1 8.35 1.5h3.3Zm-.66 1.5H9.01l-.18 1.354a.75.75 0 0 1-.522.621 5 5 0 0 0-1.83 1.058.75.75 0 0 1-.789.144l-1.272-.5-.99 1.715 1.092.852a.75.75 0 0 1 .267.74 5.1 5.1 0 0 0 0 2.032.75.75 0 0 1-.267.74l-1.092.852.99 1.715 1.272-.5a.75.75 0 0 1 .79.144 5 5 0 0 0 1.83 1.058.75.75 0 0 1 .521.621L9.01 17h1.98l.18-1.354a.75.75 0 0 1 .522-.621 5 5 0 0 0 1.83-1.058.75.75 0 0 1 .789-.144l1.272.5.99-1.715-1.092-.852a.75.75 0 0 1-.267-.74 5.1 5.1 0 0 0 0-2.032.75.75 0 0 1 .267-.74l1.092-.852-.99-1.715-1.272.5a.75.75 0 0 1-.79-.144 5 5 0 0 0-1.83-1.058.75.75 0 0 1-.521-.621L10.99 3Z" fill="currentColor"/>
  </g>
</svg>